{"scene":0,"scenes":[{"nodes":[0]}],"asset":{"version":"2.0","generator":"https://github.com/mikedh/trimesh"},"accessors":[{"componentType":5125,"type":"SCALAR","bufferView":0,"count":36,"max":[7],"min":[0]},{"componentType":5126,"type":"VEC3","byteOffset":0,"bufferView":1,"count":8,"max":[5.0,1.5,5.0],"min":[-5.0,-1.5,-5.0]},{"componentType":5121,"normalized":true,"type":"VEC4","byteOffset":0,"bufferView":2,"count":8,"max":[200,200,200,50],"min":[200,200,200,50]},{"componentType":5126,"type":"VEC3","byteOffset":0,"bufferView":3,"count":8,"max":[2.3528387546539307,2.4071688652038574,8.925009727478027],"min":[1.3551613092422485,1.564293384552002,5.580989837646484]},{"componentType":5121,"normalized":true,"type":"VEC4","byteOffset":0,"bufferView":4,"count":8,"max":[100,100,255,255],"min":[100,100,255,255]},{"componentType":5126,"type":"VEC3","byteOffset":0,"bufferView":5,"count":8,"max":[2.2130956649780273,2.1886894702911377,3.5134999752044678],"min":[1.6009043455123901,1.811745047569275,1.1664999723434448]},{"componentType":5126,"type":"VEC3","byteOffset":0,"bufferView":6,"count":8,"max":[3.5003113746643066,3.6471176147460938,6.105110168457031],"min":[3.3576884269714355,3.4925341606140137,5.508890151977539]},{"componentType":5126,"type":"VEC3","byteOffset":0,"bufferView":7,"count":8,"max":[8.306519508361816,2.593674659729004,5.28254508972168],"min":[7.303480625152588,1.7914819717407227,4.691454887390137]},{"componentType":5126,"type":"VEC3","byteOffset":0,"bufferView":8,"count":8,"max":[8.662174224853516,2.6600430011749268,1.9483200311660767],"min":[7.797825813293457,1.882192850112915,0.42767998576164246]},{"componentType":5126,"type":"VEC3","byteOffset":0,"bufferView":9,"count":8,"max":[7.357945919036865,4.287524700164795,5.915800094604492],"min":[6.218054294586182,3.1098010540008545,0.3921999931335449]},{"componentType":5126,"type":"VEC3","byteOffset":0,"bufferView":10,"count":8,"max":[5.9575958251953125,5.555052757263184,5.6450700759887695],"min":[5.310404300689697,2.802539825439453,5.258930206298828]},{"componentType":5126,"type":"VEC3","byteOffset":0,"bufferView":11,"count":8,"max":[5.85078239440918,4.213217258453369,9.278539657592773],"min":[5.203217506408691,0.9911444187164307,8.00745964050293]},{"componentType":5126,"type":"VEC3","byteOffset":0,"bufferView":12,"count":8,"max":[9.50170612335205,2.3237528800964355,9.530400276184082],"min":[7.260293960571289,0.6768611073493958,5.717599868774414]},{"componentType":5126,"type":"VEC3","byteOffset":0,"bufferView":13,"count":8,"max":[2.860846519470215,3.14790415763855,5.245999813079834],"min":[2.593153476715088,2.772057294845581,2.3259999752044678]},{"componentType":5126,"type":"VEC3","byteOffset":0,"bufferView":14,"count":8,"max":[3.0516810417175293,3.1877074241638184,6.2972002029418945],"min":[2.4063189029693604,2.7322540283203125,1.2747999429702759]},{"componentType":5126,"type":"VEC3","byteOffset":0,"bufferView":15,"count":8,"max":[5.425747871398926,3.7517478466033936,6.877490043640137],"min":[4.780251979827881,3.1285946369171143,5.550509929656982]},{"componentType":5126,"type":"VEC3","byteOffset":0,"bufferView":16,"count":8,"max":[5.386290073394775,3.7335691452026367,6.815770149230957],"min":[4.819709777832031,3.146773338317871,5.612229824066162]}],"meshes":[{"name":"geometry_0","extras":{"shape":"box","extents":[10.0,3.0,10.0]},"primitives":[{"attributes":{"POSITION":1,"COLOR_0":2},"indices":0,"mode":4}]},{"name":"geometry_1","extras":{"shape":"box","extents":[0.88816,0.4575,3.34402]},"primitives":[{"attributes":{"POSITION":3,"COLOR_0":4},"indices":0,"mode":4}]},{"name":"geometry_2","extras":{"shape":"box","extents":[0.611,0.375,2.347]},"primitives":[{"attributes":{"POSITION":5,"COLOR_0":4},"indices":0,"mode":4}]},{"name":"geometry_3","extras":{"shape":"box","extents":[0.15447,0.14250000000000002,0.5962200000000001]},"primitives":[{"attributes":{"POSITION":6,"COLOR_0":4},"indices":0,"mode":4}]},{"name":"geometry_4","extras":{"shape":"box","extents":[0.93789,0.3825,0.59109]},"primitives":[{"attributes":{"POSITION":7,"COLOR_0":4},"indices":0,"mode":4}]},{"name":"geometry_5","extras":{"shape":"box","extents":[0.7206400000000001,0.48,1.52064]},"primitives":[{"attributes":{"POSITION":8,"COLOR_0":4},"indices":0,"mode":4}]},{"name":"geometry_6","extras":{"shape":"box","extents":[0.7968000000000001,0.8999999999999999,5.523599999999999]},"primitives":[{"attributes":{"POSITION":9,"COLOR_0":4},"indices":0,"mode":4}]},{"name":"geometry_7","extras":{"shape":"box","extents":[2.7520000000000002,0.645,0.38614]},"primitives":[{"attributes":{"POSITION":10,"COLOR_0":4},"indices":0,"mode":4}]},{"name":"geometry_8","extras":{"shape":"box","extents":[3.2215599999999998,0.645,1.2710799999999998]},"primitives":[{"attributes":{"POSITION":11,"COLOR_0":4},"indices":0,"mode":4}]},{"name":"geometry_9","extras":{"shape":"box","extents":[2.244,0.6000000000000001,3.8128]},"primitives":[{"attributes":{"POSITION":12,"COLOR_0":4},"indices":0,"mode":4}]},{"name":"geometry_10","extras":{"shape":"box","extents":[0.2665,0.375,2.92]},"primitives":[{"attributes":{"POSITION":13,"COLOR_0":4},"indices":0,"mode":4}]},{"name":"geometry_11","extras":{"shape":"box","extents":[0.45494,0.645,5.0224]},"primitives":[{"attributes":{"POSITION":14,"COLOR_0":4},"indices":0,"mode":4}]},{"name":"geometry_12","extras":{"shape":"box","extents":[0.6226400000000001,0.645,1.3269799999999998]},"primitives":[{"attributes":{"POSITION":15,"COLOR_0":4},"indices":0,"mode":4}]},{"name":"geometry_13","extras":{"shape":"box","extents":[0.5647200000000001,0.585,1.20354]},"primitives":[{"attributes":{"POSITION":16,"COLOR_0":4},"indices":0,"mode":4}]},{"name":"geometry_14","extras":{"shape":"box","extents":[0.5647200000000001,0.585,1.20354]},"primitives":[{"attributes":{"POSITION":16,"COLOR_0":4},"indices":0,"mode":4}]}],"nodes":[{"name":"world","children":[1,2,3,4,5,6,7,8,9,10,11,12,13,14]},{"name":"room","mesh":0},{"name":"washing machine_b3eeaeb0","mesh":1},{"name":"clothes dryer_ea9b6ffa","mesh":2},{"name":"toilet_e23978f8","mesh":3},{"name":"sink_1f4df013","mesh":4},{"name":"mirror_5ca85c24","mesh":5},{"name":"shower_f70bc7c1","mesh":6},{"name":"bath tub_28fbe6cf","mesh":7},{"name":"bath mat_28fbe6cf","mesh":8},{"name":"chair_1dae31a7","mesh":9},{"name":"clothes_ea9b6ffa","mesh":10},{"name":"bathrobe_28fbe6cf","mesh":11},{"name":"bath towel_28fbe6cf","mesh":12},{"name":"towel_059b8a83","mesh":14}],"buffers":[{"uri":"gltf_buffer_0.bin","byteLength":144},{"uri":"gltf_buffer_1.bin","byteLength":96},{"uri":"gltf_buffer_2.bin","byteLength":32},{"uri":"gltf_buffer_3.bin","byteLength":96},{"uri":"gltf_buffer_4.bin","byteLength":32},{"uri":"gltf_buffer_5.bin","byteLength":96},{"uri":"gltf_buffer_6.bin","byteLength":96},{"uri":"gltf_buffer_7.bin","byteLength":96},{"uri":"gltf_buffer_8.bin","byteLength":96},{"uri":"gltf_buffer_9.bin","byteLength":96},{"uri":"gltf_buffer_10.bin","byteLength":96},{"uri":"gltf_buffer_11.bin","byteLength":96},{"uri":"gltf_buffer_12.bin","byteLength":96},{"uri":"gltf_buffer_13.bin","byteLength":96},{"uri":"gltf_buffer_14.bin","byteLength":96},{"uri":"gltf_buffer_15.bin","byteLength":96},{"uri":"gltf_buffer_16.bin","byteLength":96}],"bufferViews":[{"buffer":0,"byteOffset":0,"byteLength":144},{"buffer":1,"byteOffset":0,"byteLength":96},{"buffer":2,"byteOffset":0,"byteLength":32},{"buffer":3,"byteOffset":0,"byteLength":96},{"buffer":4,"byteOffset":0,"byteLength":32},{"buffer":5,"byteOffset":0,"byteLength":96},{"buffer":6,"byteOffset":0,"byteLength":96},{"buffer":7,"byteOffset":0,"byteLength":96},{"buffer":8,"byteOffset":0,"byteLength":96},{"buffer":9,"byteOffset":0,"byteLength":96},{"buffer":10,"byteOffset":0,"byteLength":96},{"buffer":11,"byteOffset":0,"byteLength":96},{"buffer":12,"byteOffset":0,"byteLength":96},{"buffer":13,"byteOffset":0,"byteLength":96},{"buffer":14,"byteOffset":0,"byteLength":96},{"buffer":15,"byteOffset":0,"byteLength":96},{"buffer":16,"byteOffset":0,"byteLength":96}]}