{"scene":0,"scenes":[{"nodes":[0]}],"asset":{"version":"2.0","generator":"https://github.com/mikedh/trimesh"},"accessors":[{"componentType":5125,"type":"SCALAR","bufferView":0,"count":36,"max":[7],"min":[0]},{"componentType":5126,"type":"VEC3","byteOffset":0,"bufferView":1,"count":8,"max":[5.0,1.5,5.0],"min":[-5.0,-1.5,-5.0]},{"componentType":5121,"normalized":true,"type":"VEC4","byteOffset":0,"bufferView":2,"count":8,"max":[200,200,200,50],"min":[200,200,200,50]},{"componentType":5125,"type":"SCALAR","bufferView":3,"count":564,"max":[95],"min":[0]},{"componentType":5126,"type":"VEC3","byteOffset":0,"bufferView":4,"count":96,"max":[2.3419361114501953,2.1815438270568848,8.707193374633789],"min":[1.5185779333114624,1.5095574855804443,5.798806667327881]},{"componentType":5125,"type":"SCALAR","bufferView":6,"count":102690,"max":[22102],"min":[0]},{"componentType":5126,"type":"VEC3","byteOffset":0,"bufferView":7,"count":22103,"max":[2.5191843509674072,2.3203611373901367,3.888471841812134],"min":[1.2948834896087646,1.9982956647872925,0.7915989756584167]},{"componentType":5125,"type":"SCALAR","bufferView":8,"count":3816,"max":[676],"min":[0]},{"componentType":5126,"type":"VEC3","byteOffset":0,"bufferView":9,"count":677,"max":[3.429004669189453,3.5787696838378906,5.842461109161377],"min":[3.410083055496216,3.560911178588867,5.771548748016357]},{"componentType":5125,"type":"SCALAR","bufferView":10,"count":4857,"max":[882],"min":[0]},{"componentType":5126,"type":"VEC3","byteOffset":0,"bufferView":11,"count":883,"max":[8.242501258850098,2.7657485008239746,5.255376815795898],"min":[7.18218469619751,1.9384818077087402,4.718623161315918]},{"componentType":5125,"type":"SCALAR","bufferView":12,"count":5790,"max":[1118],"min":[0]},{"componentType":5126,"type":"VEC3","byteOffset":0,"bufferView":13,"count":1119,"max":[8.355430603027344,2.2992939949035645,1.3449592590332031],"min":[8.17181396484375,2.128227949142456,1.0298702716827393]},{"componentType":5125,"type":"SCALAR","bufferView":14,"count":2382,"max":[413],"min":[0]},{"componentType":5126,"type":"VEC3","byteOffset":0,"bufferView":15,"count":414,"max":[6.978214263916016,4.000848293304443,3.417726993560791],"min":[6.772373199462891,3.6990911960601807,2.890273094177246]},{"componentType":5125,"type":"SCALAR","bufferView":16,"count":1572,"max":[263],"min":[0]},{"componentType":5126,"type":"VEC3","byteOffset":0,"bufferView":17,"count":264,"max":[5.633999824523926,4.266129970550537,5.599730014801025],"min":[5.593070030212402,4.091495513916016,5.304270267486572]},{"componentType":5126,"type":"VEC3","byteOffset":0,"bufferView":18,"count":264,"max":[5.5269999504089355,2.7044126987457275,9.129290580749512],"min":[5.486070156097412,2.49998140335083,8.156708717346191]},{"componentType":5125,"type":"SCALAR","bufferView":19,"count":216,"max":[47],"min":[0]},{"componentType":5126,"type":"VEC3","byteOffset":0,"bufferView":20,"count":48,"max":[9.034924507141113,2.1108555793762207,8.909367561340332],"min":[7.451851844787598,1.1199547052383423,6.338632106781006]},{"componentType":5126,"type":"VEC3","byteOffset":0,"bufferView":21,"count":22103,"max":[2.994050979614258,3.280545234680176,5.712518215179443],"min":[2.4600186347961426,2.9591424465179443,1.859570026397705]},{"componentType":5126,"type":"VEC3","byteOffset":0,"bufferView":22,"count":264,"max":[2.7290000915527344,2.9744317531585693,5.707474708557129],"min":[2.688070058822632,2.9455623626708984,1.864525318145752]},{"componentType":5126,"type":"VEC3","byteOffset":0,"bufferView":23,"count":264,"max":[5.103000164031982,3.4599430561065674,6.721677303314209],"min":[5.062069892883301,3.4204320907592773,5.70632266998291]},{"componentType":5125,"type":"SCALAR","bufferView":24,"count":2628,"max":[457],"min":[0]},{"componentType":5126,"type":"VEC3","byteOffset":0,"bufferView":25,"count":458,"max":[5.367770671844482,3.8276174068450928,6.2632036209106445],"min":[4.84057092666626,3.439854383468628,6.164796352386475]}],"meshes":[{"name":"geometry_0","extras":{"shape":"box","extents":[10.0,3.0,10.0]},"primitives":[{"attributes":{"POSITION":1,"COLOR_0":2},"indices":0,"mode":4}]},{"name":"geometry_1","extras":{"units":"meters","from_gltf_primitive":false,"processed":true},"primitives":[{"attributes":{"POSITION":4},"indices":3,"mode":4,"material":0}]},{"name":"geometry_2","extras":{"units":"meters","from_gltf_primitive":false,"processed":true},"primitives":[{"attributes":{"POSITION":6},"indices":5,"mode":4,"material":0}]},{"name":"geometry_3","extras":{"units":"meters","from_gltf_primitive":false,"processed":true},"primitives":[{"attributes":{"POSITION":8},"indices":7,"mode":4,"material":0}]},{"name":"geometry_4","extras":{"units":"meters","from_gltf_primitive":false,"processed":true},"primitives":[{"attributes":{"POSITION":10},"indices":9,"mode":4,"material":0}]},{"name":"geometry_5","extras":{"units":"meters","from_gltf_primitive":false,"processed":true},"primitives":[{"attributes":{"POSITION":12},"indices":11,"mode":4,"material":0}]},{"name":"geometry_6","extras":{"units":"meters","from_gltf_primitive":false,"processed":true},"primitives":[{"attributes":{"POSITION":14},"indices":13,"mode":4,"material":0}]},{"name":"geometry_7","extras":{"units":"meters","from_gltf_primitive":false,"processed":true},"primitives":[{"attributes":{"POSITION":16},"indices":15,"mode":4,"material":0}]},{"name":"geometry_8","extras":{"units":"meters","from_gltf_primitive":false,"processed":true},"primitives":[{"attributes":{"POSITION":17},"indices":15,"mode":4,"material":0}]},{"name":"geometry_9","extras":{"units":"meters","from_gltf_primitive":false,"processed":true},"primitives":[{"attributes":{"POSITION":19},"indices":18,"mode":4,"material":0}]},{"name":"geometry_10","extras":{"units":"meters","from_gltf_primitive":false,"processed":true},"primitives":[{"attributes":{"POSITION":20},"indices":5,"mode":4,"material":0}]},{"name":"geometry_11","extras":{"units":"meters","from_gltf_primitive":false,"processed":true},"primitives":[{"attributes":{"POSITION":21},"indices":15,"mode":4,"material":0}]},{"name":"geometry_12","extras":{"units":"meters","from_gltf_primitive":false,"processed":true},"primitives":[{"attributes":{"POSITION":22},"indices":15,"mode":4,"material":0}]},{"name":"geometry_13","extras":{"units":"meters","from_gltf_primitive":false,"processed":true},"primitives":[{"attributes":{"POSITION":24},"indices":23,"mode":4,"material":0}]},{"name":"geometry_14","extras":{"units":"meters","from_gltf_primitive":false,"processed":true},"primitives":[{"attributes":{"POSITION":24},"indices":23,"mode":4,"material":0}]}],"images":[{"bufferView":5,"mimeType":"image/png"}],"textures":[{"source":0}],"materials":[{"pbrMetallicRoughness":{"baseColorTexture":{"index":0},"baseColorFactor":[0.4,0.4,0.4,1.0],"roughnessFactor":0.9036020036098448},"doubleSided":false}],"nodes":[{"name":"world","children":[1,2,3,4,5,6,7,8,9,10,11,12,13,14]},{"name":"room","mesh":0},{"name":"washing machine_b3eeaeb0","mesh":1},{"name":"clothes dryer_ea9b6ffa","mesh":2},{"name":"toilet_e23978f8","mesh":3},{"name":"sink_1f4df013","mesh":4},{"name":"mirror_5ca85c24","mesh":5},{"name":"shower_f70bc7c1","mesh":6},{"name":"bath tub_28fbe6cf","mesh":7},{"name":"bath mat_28fbe6cf","mesh":8},{"name":"chair_1dae31a7","mesh":9},{"name":"clothes_ea9b6ffa","mesh":10},{"name":"bathrobe_28fbe6cf","mesh":11},{"name":"bath towel_28fbe6cf","mesh":12},{"name":"towel_059b8a83","mesh":14}],"buffers":[{"uri":"gltf_buffer_0.bin","byteLength":144},{"uri":"gltf_buffer_1.bin","byteLength":96},{"uri":"gltf_buffer_2.bin","byteLength":32},{"uri":"gltf_buffer_3.bin","byteLength":2256},{"uri":"gltf_buffer_4.bin","byteLength":1152},{"uri":"gltf_buffer_5.bin","byteLength":80},{"uri":"gltf_buffer_6.bin","byteLength":410760},{"uri":"gltf_buffer_7.bin","byteLength":265236},{"uri":"gltf_buffer_8.bin","byteLength":15264},{"uri":"gltf_buffer_9.bin","byteLength":8124},{"uri":"gltf_buffer_10.bin","byteLength":19428},{"uri":"gltf_buffer_11.bin","byteLength":10596},{"uri":"gltf_buffer_12.bin","byteLength":23160},{"uri":"gltf_buffer_13.bin","byteLength":13428},{"uri":"gltf_buffer_14.bin","byteLength":9528},{"uri":"gltf_buffer_15.bin","byteLength":4968},{"uri":"gltf_buffer_16.bin","byteLength":6288},{"uri":"gltf_buffer_17.bin","byteLength":3168},{"uri":"gltf_buffer_18.bin","byteLength":3168},{"uri":"gltf_buffer_19.bin","byteLength":864},{"uri":"gltf_buffer_20.bin","byteLength":576},{"uri":"gltf_buffer_21.bin","byteLength":265236},{"uri":"gltf_buffer_22.bin","byteLength":3168},{"uri":"gltf_buffer_23.bin","byteLength":3168},{"uri":"gltf_buffer_24.bin","byteLength":10512},{"uri":"gltf_buffer_25.bin","byteLength":5496}],"bufferViews":[{"buffer":0,"byteOffset":0,"byteLength":144},{"buffer":1,"byteOffset":0,"byteLength":96},{"buffer":2,"byteOffset":0,"byteLength":32},{"buffer":3,"byteOffset":0,"byteLength":2256},{"buffer":4,"byteOffset":0,"byteLength":1152},{"buffer":5,"byteOffset":0,"byteLength":80},{"buffer":6,"byteOffset":0,"byteLength":410760},{"buffer":7,"byteOffset":0,"byteLength":265236},{"buffer":8,"byteOffset":0,"byteLength":15264},{"buffer":9,"byteOffset":0,"byteLength":8124},{"buffer":10,"byteOffset":0,"byteLength":19428},{"buffer":11,"byteOffset":0,"byteLength":10596},{"buffer":12,"byteOffset":0,"byteLength":23160},{"buffer":13,"byteOffset":0,"byteLength":13428},{"buffer":14,"byteOffset":0,"byteLength":9528},{"buffer":15,"byteOffset":0,"byteLength":4968},{"buffer":16,"byteOffset":0,"byteLength":6288},{"buffer":17,"byteOffset":0,"byteLength":3168},{"buffer":18,"byteOffset":0,"byteLength":3168},{"buffer":19,"byteOffset":0,"byteLength":864},{"buffer":20,"byteOffset":0,"byteLength":576},{"buffer":21,"byteOffset":0,"byteLength":265236},{"buffer":22,"byteOffset":0,"byteLength":3168},{"buffer":23,"byteOffset":0,"byteLength":3168},{"buffer":24,"byteOffset":0,"byteLength":10512},{"buffer":25,"byteOffset":0,"byteLength":5496}]}